<svg width="50" height="40" viewBox="0 0 50 40" fill="#D95C52" xmlns="http://www.w3.org/2000/svg">
    <path
        d="M46 4.97461C46 4.43635 45.5523 4 45 4H36.4142C36.149 4 35.8946 4.10268 35.7071 4.28546L25 14.7207V29C25.2422 29 26 28.3651 26 28.3651L34.2929 20.2828C34.9229 19.6689 36 20.1037 36 20.972V32.6863C36 33.0287 36.1843 33.3459 36.4855 33.5221L40.4855 35.8611C40.8022 36.0463 41.1978 36.0463 41.5145 35.8611L45.5145 33.5221C45.8157 33.3459 46 33.0287 46 32.6863V4.97461Z"
        fill="#D95C52" />
    <path
        d="M14.2929 4.28546C14.1054 4.10268 13.851 4 13.5858 4H5C4.44772 4 4 4.43635 4 4.97461V32.6863C4 33.0287 4.1843 33.3459 4.4855 33.5221L8.4855 35.8611C8.80219 36.0463 9.19781 36.0463 9.5145 35.8611L13.5145 33.5221C13.8157 33.3459 14 33.0287 14 32.6863V20.972C14 20.1037 15.0771 19.6689 15.7071 20.2828L23.9634 28.3294C23.9878 28.3532 24.013 28.3755 24.0399 28.3964C24.2041 28.5241 24.8275 29 25 29V14.7207L14.2929 4.28546Z"
        fill="#AE4A42" />
</svg>